# xmcd CD database file
#
# Track frame offsets:
#	150
#	13058
#	24981
#	37039
#	53079
#	69817
#	81814
#	96017
#	111682
#	121541
#	135573
#	151826
#	165542
#	178740
#
# Disc length: 2609 seconds
#
# Revision: 0
# Processed by: cddbd v1.5.2PL0 Copyright (c) Steve Scherf et al.
# Submitted via: CDex 1.51
#
DISCID=a80a2f0e
DTITLE=Ron Odgers - This Land Is Not For Sale
DYEAR=1900
DGENRE=Country
TTITLE0=23 Coronation Street
TTITLE1=Where's Ayr ?
TTITLE2=The Dengie Fever Mossie
TTITLE3=Ravenswood
TTITLE4=Always In My Dreams
TTITLE5=She Wanted It All From Me
TTITLE6=Nardoo Burns
TTITLE7=This Land Is Not For Sale
TTITLE8=Hole In The Atmosphere
TTITLE9=Daylight Bloody Saving
TTITLE10=Kirk River Woman
TTITLE11=You Always Seemed To Be Around
TTITLE12=It's Gonna Take A Little Longer
TTITLE13=The Only Time A Fisherman Tells The Truth
EXTD=
EXTT0=
EXTT1=
EXTT2=
EXTT3=
EXTT4=
EXTT5=
EXTT6=
EXTT7=
EXTT8=
EXTT9=
EXTT10=
EXTT11=
EXTT12=
EXTT13=
PLAYORDER=
